PathFileType	4	(X/Y/Z)	C:\Git\research_data\Projects\torsion_deformities_healthy_kinematics\simulations\P01\pre\dynamic06_l\marker_experimental.trc
DataRate	CameraRate	NumFrames	NumMarkers	Units	OrigDataRate	OrigDataStartFrame	OrigNumFrames
200	200	4	34	mm	200	664	884
Frame#	Time	C7			T10			CLAV			STRN			RBAK			LASI			RASI			SACR			LT1			LT2			LT3			LS1			LS2			LS3			LHEE			LTOE			RT1			RT2			RT3			RS1			RS2			RS3			RHEE			RTOE			LKNE			LANK			RKNE			RANK			LAJC			LKJC			RAJC			RKJC			RHJC			LHJC		
		X1	Y1	Z1	X2	Y2	Z2	X3	Y3	Z3	X4	Y4	Z4	X5	Y5	Z5	X6	Y6	Z6	X7	Y7	Z7	X8	Y8	Z8	X9	Y9	Z9	X10	Y10	Z10	X11	Y11	Z11	X12	Y12	Z12	X13	Y13	Z13	X14	Y14	Z14	X15	Y15	Z15	X16	Y16	Z16	X17	Y17	Z17	X18	Y18	Z18	X19	Y19	Z19	X20	Y20	Z20	X21	Y21	Z21	X22	Y22	Z22	X23	Y23	Z23	X24	Y24	Z24	X25	Y25	Z25	X26	Y26	Z26	X27	Y27	Z27	X28	Y28	Z28	X29	Y29	Z29	X30	Y30	Z30	X31	Y31	Z31	X32	Y32	Z32	X33	Y33	Z33	X34	Y34	Z34	

664	3.315000	1306.588135	1029.929077	-301.065308	1280.036743	854.234741	-315.000854	1422.912964	990.409668	-301.083313	1471.296021	862.564087	-308.040405	1282.549683	964.630920	-213.889389	1405.712036	696.397095	-423.133087	1415.087280	689.645752	-212.622726	1261.169800	741.709412	-313.957397	1415.683350	527.124756	-473.901245	1385.118042	433.747681	-480.537079	1523.480347	467.495667	-458.627502	1402.993286	285.990723	-469.367126	1280.726196	268.742218	-478.826538	1398.846313	191.241959	-445.599579	1233.278076	145.914825	-396.676575	1349.475830	63.324535	-396.678833	1362.061401	517.699463	-175.613159	1302.273804	445.630066	-193.319443	1443.056641	429.483246	-189.587372	1372.472900	273.178894	-200.046722	1276.486694	208.012085	-161.240891	1404.874146	184.506683	-219.651535	1268.359375	44.112701	-236.338074	1409.183472	43.672188	-267.527496	1455.988281	376.013000	-466.021057	1271.164917	111.171700	-424.863586	1370.195312	349.836395	-211.875275	1322.294189	40.545460	-212.656052	1274.226074	111.589958	-391.108429	1468.761475	366.547058	-417.052673	1314.896484	46.844444	-248.228317	1374.518433	350.894501	-265.518829	1345.610320	634.806613	-239.870844	1338.773413	639.730037	-393.385744	
665	3.320000	1313.142090	1030.279907	-300.624817	1286.387085	854.775330	-314.854095	1429.417725	990.866760	-301.130096	1477.695190	862.873596	-308.086243	1289.463379	964.997253	-213.245255	1412.467407	697.279663	-422.555328	1420.695435	689.605286	-212.734680	1267.274780	742.516907	-314.377502	1423.690063	529.077759	-474.013763	1394.350464	435.374023	-481.123291	1531.978882	470.601776	-457.721527	1414.333252	286.207458	-469.043365	1292.541870	265.288422	-477.555359	1413.303223	191.299820	-445.354156	1249.616333	140.589539	-395.491699	1368.751221	62.494102	-395.984100	1365.035156	517.779541	-175.642197	1304.496338	446.573883	-193.827957	1444.948853	428.531189	-188.916977	1373.312256	273.206329	-199.961044	1276.947144	208.455505	-161.339401	1405.378662	184.418549	-219.512390	1268.367310	44.312889	-236.454575	1409.254517	43.620014	-267.501556	1465.668457	378.430573	-465.976837	1288.268433	107.395317	-423.713013	1371.290405	349.816528	-211.814133	1322.124756	40.798462	-212.674774	1291.588623	107.869957	-389.983093	1478.037720	369.021820	-416.893860	1314.824829	47.130890	-248.261292	1376.081909	350.806000	-265.419189	1351.266789	635.257777	-240.461466	1345.264580	640.856108	-393.522147	
666	3.325000	1319.711914	1030.535278	-300.189453	1292.750000	855.220398	-314.725189	1435.950439	991.207092	-301.177643	1484.114990	863.062439	-308.114685	1296.400513	965.267822	-212.593658	1419.215210	697.950317	-422.024933	1426.229370	689.432556	-212.804092	1273.379272	743.210693	-314.862823	1431.686523	530.877319	-474.134186	1403.481323	436.913239	-481.670258	1540.382446	473.448486	-456.846802	1425.575684	286.352966	-468.735901	1304.398682	261.735168	-476.196442	1427.744385	191.364792	-445.265900	1266.237671	135.150330	-394.457733	1388.148438	61.690994	-395.242554	1368.085815	517.823425	-175.709366	1306.811890	447.477356	-194.315125	1446.897095	427.562164	-188.320023	1374.090942	273.228394	-199.853180	1277.165771	208.922241	-161.657059	1405.831543	184.319199	-219.227097	1268.374878	44.514481	-236.600555	1409.321899	43.566891	-267.457458	1475.181519	380.671539	-465.902649	1305.546631	103.609985	-422.703247	1372.455811	349.773773	-211.755463	1321.772949	41.080967	-212.722214	1309.163086	104.111420	-389.004181	1487.154541	371.314789	-416.711578	1314.677490	47.435841	-248.346069	1377.677246	350.671753	-265.321991	1356.835293	635.567586	-241.026911	1351.717159	641.782875	-393.692404	
667	3.330000	1326.297119	1030.693237	-299.760559	1299.125854	855.567017	-314.616058	1442.510742	991.427673	-301.226715	1490.553955	863.127625	-308.126404	1303.359741	965.439697	-211.936188	1425.948730	698.402344	-421.555908	1431.687988	689.129517	-212.825760	1279.484497	743.786682	-315.414642	1439.663452	532.504578	-474.257721	1412.499512	438.341919	-482.163116	1548.690430	476.016968	-456.004425	1436.731079	286.420197	-468.436981	1316.317749	258.060730	-474.775879	1442.174316	191.442917	-445.311981	1283.141113	129.627792	-393.580566	1407.657715	60.931267	-394.484467	1371.223389	517.828613	-175.814743	1309.222290	448.334869	-194.781265	1448.914795	426.570953	-187.800064	1374.822144	273.239563	-199.729691	1277.177246	209.406998	-162.174637	1406.241699	184.201645	-218.814804	1268.381958	44.718319	-236.777222	1409.385254	43.512978	-267.400848	1484.522705	382.713989	-465.785919	1323.017822	99.822632	-421.836395	1373.695679	349.706268	-211.701614	1321.262329	41.386620	-212.797882	1326.959839	100.331116	-388.173981	1496.112061	373.410126	-416.493042	1314.466431	47.752171	-248.478180	1379.306152	350.491882	-265.230530	1362.313707	635.730863	-241.561500	1358.124901	642.498649	-393.903512	
